<svg width="385" height="80" viewBox="0 0 385 80" fill="none" xmlns="http://www.w3.org/2000/svg">
<g clip-path="url(#clip0_30_198)">
<path d="M39.6133 34.79H47.74C48.5677 34.7891 49.3612 34.4599 49.9465 33.8745C50.5317 33.2891 50.8609 32.4954 50.8617 31.6675V24.2866C50.8634 23.2328 51.2829 22.2228 52.0281 21.478C52.7733 20.7333 53.7834 20.3145 54.8368 20.3137H62.5625C63.3902 20.3128 64.1837 19.9836 64.7689 19.3982C65.3542 18.8128 65.6834 18.0191 65.6842 17.1912V8.61965C65.6834 7.79178 65.3542 6.99807 64.7689 6.41267C64.1837 5.82728 63.3902 5.49804 62.5625 5.49719H52.8605C52.0328 5.49804 51.2393 5.82728 50.6541 6.41267C50.0688 6.99807 49.7397 7.79178 49.7388 8.61965V16.0006C49.7371 17.0546 49.3177 18.065 48.5726 18.8103C47.8275 19.5556 46.8174 19.975 45.7637 19.9767H38.0412C37.2141 19.9776 36.4211 20.3064 35.8359 20.8911C35.2507 21.4758 34.9212 22.2687 34.9195 23.096V30.4769C34.9187 31.5306 34.5 32.541 33.7554 33.2864C33.0108 34.0318 32.001 34.4513 30.9476 34.453H22.8177C22.4077 34.453 22.0018 34.5338 21.6231 34.6907C21.2443 34.8476 20.9002 35.0776 20.6103 35.3676C20.3204 35.6575 20.0905 36.0017 19.9336 36.3806C19.7767 36.7594 19.696 37.1654 19.696 37.5755V46.1502C19.696 46.9784 20.0249 47.7726 20.6103 48.3582C21.1957 48.9437 21.9898 49.2727 22.8177 49.2727H30.9476C32.001 49.2744 33.0108 49.694 33.7554 50.4394C34.5 51.1847 34.9187 52.1951 34.9195 53.2488V60.6298C34.9204 61.4576 35.2495 62.2514 35.8348 62.8368C36.42 63.4221 37.2136 63.7514 38.0412 63.7522H45.7637C46.8119 63.7564 47.8161 64.1739 48.5585 64.9141C49.3009 65.6543 49.7216 66.6574 49.7292 67.7059V74.7659C49.73 75.5935 50.0593 76.3869 50.6446 76.9718C51.23 77.5566 52.0235 77.8852 52.8509 77.8852H62.5625C63.3899 77.8852 64.1834 77.5566 64.7687 76.9718C65.3541 76.3869 65.6834 75.5935 65.6842 74.7659V66.1976C65.6834 65.3697 65.3542 64.576 64.7689 63.9906C64.1837 63.4052 63.3902 63.076 62.5625 63.0751H54.8368C53.7831 63.0734 52.773 62.654 52.0279 61.9087C51.2828 61.1634 50.8634 60.153 50.8617 59.099V52.039C50.8617 51.2108 50.5328 50.4166 49.9474 49.831C49.362 49.2455 48.5679 48.9165 47.74 48.9165H39.6133C38.5596 48.9148 37.5495 48.4953 36.8043 47.7501C36.0592 47.0048 35.6399 45.9944 35.6382 44.9404V38.7661C35.6399 37.7121 36.0592 36.7017 36.8043 35.9564C37.5495 35.2111 38.5596 34.7917 39.6133 34.79Z" fill="#FF5A00"/>
<path d="M11.566 5.50043H1.12613C0.504184 5.50043 0 6.00473 0 6.62683V76.7716C0 77.3937 0.504184 77.898 1.12613 77.898H11.566C12.188 77.898 12.6922 77.3937 12.6922 76.7716V6.62683C12.6922 6.00473 12.188 5.50043 11.566 5.50043Z" fill="#FF5A00"/>
<path d="M101.133 21.1833C117.816 21.1833 130.534 33.1277 130.534 50.5917C130.534 68.0557 117.804 80 101.133 80C84.4626 80 71.7319 68.0557 71.7319 50.5917C71.7319 33.1277 84.4594 21.1833 101.133 21.1833ZM101.133 69.4099C111.496 69.4099 118.817 61.8589 118.817 50.5917C118.817 39.3245 111.496 31.7734 101.133 31.7734C90.7702 31.7734 83.4456 39.3245 83.4456 50.5917C83.4456 61.8589 90.7702 69.4099 101.133 69.4099Z" fill="#FF5A00"/>
<path d="M191.409 77.7472C191.409 78.5367 191.072 78.8736 190.283 78.8736H181.499C180.709 78.8736 180.369 78.5527 180.369 77.7472V73.5754C175.977 77.8563 170.103 79.9936 163.022 79.9936C147.814 79.9936 137.564 68.5018 137.564 50.5853C137.564 32.6688 147.83 21.1769 163.022 21.1769C170.231 21.1769 175.534 23.7667 180.369 27.7107V1.12639C180.369 0.33695 180.709 0 181.499 0H190.283C191.072 0 191.409 0.320905 191.409 1.12639V77.7472ZM165.274 31.7734C155.364 31.7734 149.281 39.4368 149.281 50.5917C149.281 61.7466 155.376 69.41 165.274 69.41C174.739 69.41 181.271 61.6343 181.271 50.5917C181.271 39.5491 174.739 31.7734 165.274 31.7734Z" fill="#FF5A00"/>
<path d="M245.63 60.9571C246.079 60.0553 246.419 59.943 247.205 59.943H256.782C257.344 59.943 257.571 60.1677 257.571 60.7325C257.571 61.0534 257.684 61.0534 257.344 61.8589C252.502 74.5926 243.49 80 230.31 80C213.412 80 201.583 67.6064 201.583 50.5917C201.583 33.577 213.637 21.1833 230.198 21.1833C248.219 21.1833 258.698 34.7033 258.698 50.9286V53.0691C258.698 53.8585 258.357 54.1955 257.571 54.1955H213.296C214.535 63.6624 220.842 69.4099 230.301 69.4099C237.969 69.4099 242.813 66.9293 245.63 60.9571ZM213.749 44.0547H246.644C244.719 35.9421 238.302 31.7734 230.198 31.7734C223.326 31.7734 215.889 35.5088 213.749 44.0547Z" fill="#FF5A00"/>
<path d="M277.274 50.5917C277.274 62.7606 283.806 69.4099 294.169 69.4099C300.586 69.4099 306.335 66.48 308.59 59.7184C308.927 58.8166 309.376 58.7043 310.166 58.7043H319.29C319.855 58.7043 320.079 58.929 320.079 59.3814C320.092 59.7602 320.055 60.1391 319.967 60.5078C317.827 71.5504 308.59 80 294.169 80C277.046 80 265.557 67.7187 265.557 50.5917C265.557 33.4646 277.046 21.1833 294.169 21.1833C308.59 21.1833 317.939 29.6329 319.967 40.6755C320.055 41.0443 320.092 41.4231 320.079 41.8019C320.079 42.2544 319.855 42.479 319.29 42.479H310.166C309.376 42.479 308.927 42.3667 308.59 41.465C306.345 34.7033 300.592 31.7734 294.169 31.7734C283.806 31.7734 277.274 38.4227 277.274 50.5917Z" fill="#FF5A00"/>
<path d="M355.599 21.1833C372.282 21.1833 385 33.1277 385 50.5917C385 68.0557 372.269 80 355.599 80C338.928 80 326.198 68.0557 326.198 50.5917C326.198 33.1277 338.925 21.1833 355.599 21.1833ZM355.599 69.4099C365.962 69.4099 373.283 61.8589 373.283 50.5917C373.283 39.3245 365.962 31.7734 355.599 31.7734C345.236 31.7734 337.911 39.3245 337.911 50.5917C337.911 61.8589 345.236 69.4099 355.599 69.4099Z" fill="#FF5A00"/>
</g>
<defs>
<clipPath id="clip0_30_198">
<rect width="385" height="80" fill="white"/>
</clipPath>
</defs>
</svg>
